<svg width="16" height="16" viewBox="0 0 16 16" fill="none" xmlns="http://www.w3.org/2000/svg">
<path d="M7.99996 13.3332C7.63329 13.3332 7.31952 13.2027 7.05863 12.9418C6.79729 12.6805 6.66663 12.3665 6.66663 11.9998C6.66663 11.6332 6.79729 11.3192 7.05863 11.0578C7.31952 10.7969 7.63329 10.6665 7.99996 10.6665C8.36663 10.6665 8.68063 10.7969 8.94196 11.0578C9.20285 11.3192 9.33329 11.6332 9.33329 11.9998C9.33329 12.3665 9.20285 12.6805 8.94196 12.9418C8.68063 13.2027 8.36663 13.3332 7.99996 13.3332ZM7.99996 9.33317C7.63329 9.33317 7.31952 9.2025 7.05863 8.94117C6.79729 8.68028 6.66663 8.3665 6.66663 7.99984C6.66663 7.63317 6.79729 7.31917 7.05863 7.05784C7.31952 6.79695 7.63329 6.6665 7.99996 6.6665C8.36663 6.6665 8.68063 6.79695 8.94196 7.05784C9.20285 7.31917 9.33329 7.63317 9.33329 7.99984C9.33329 8.3665 9.20285 8.68028 8.94196 8.94117C8.68063 9.2025 8.36663 9.33317 7.99996 9.33317ZM7.99996 5.33317C7.63329 5.33317 7.31952 5.2025 7.05863 4.94117C6.79729 4.68028 6.66663 4.3665 6.66663 3.99984C6.66663 3.63317 6.79729 3.31939 7.05863 3.0585C7.31952 2.79717 7.63329 2.6665 7.99996 2.6665C8.36663 2.6665 8.68063 2.79717 8.94196 3.0585C9.20285 3.31939 9.33329 3.63317 9.33329 3.99984C9.33329 4.3665 9.20285 4.68028 8.94196 4.94117C8.68063 5.2025 8.36663 5.33317 7.99996 5.33317Z" fill="#BDBDBD"/>
</svg>
