<svg width="16" height="16" viewBox="0 0 16 16" fill="none" xmlns="http://www.w3.org/2000/svg">
  <path d="M6.66666 9.06686L10.6 5.13353C10.7222 5.01131 10.8778 4.9502 11.0667 4.9502C11.2555 4.9502 11.4111 5.01131 11.5333 5.13353C11.6555 5.25575 11.7167 5.41131 11.7167 5.60019C11.7167 5.78908 11.6555 5.94464 11.5333 6.06686L7.13333 10.4669C6.99999 10.6002 6.84444 10.6669 6.66666 10.6669C6.48888 10.6669 6.33333 10.6002 6.19999 10.4669L4.46666 8.73353C4.34444 8.61131 4.28333 8.45575 4.28333 8.26686C4.28333 8.07797 4.34444 7.92242 4.46666 7.8002C4.58888 7.67797 4.74444 7.61686 4.93333 7.61686C5.12221 7.61686 5.27777 7.67797 5.39999 7.8002L6.66666 9.06686Z" fill="white"/>
</svg>
