<svg width="12" height="12" viewBox="0 0 12 12" fill="none" xmlns="http://www.w3.org/2000/svg">
<path opacity="0.76" d="M5.65547 10.2103L5.65475 10.2097C4.14217 8.83902 2.92731 7.73692 2.08458 6.70729C1.24757 5.68467 0.830078 4.79471 0.830078 3.85699C0.830078 2.33748 2.01797 1.1499 3.53933 1.1499C4.40335 1.1499 5.24034 1.55429 5.78451 2.19289L6.16508 2.63949L6.54565 2.19289C7.08982 1.55429 7.92681 1.1499 8.79083 1.1499C10.3122 1.1499 11.5001 2.33748 11.5001 3.85699C11.5001 4.79471 11.0826 5.6847 10.2455 6.70815C9.40271 7.73852 8.18796 8.84194 6.6755 10.2154C6.67534 10.2156 6.67517 10.2157 6.67501 10.2159L6.16636 10.6751L5.65547 10.2103Z" stroke="#333333"/>
</svg>
