<svg width="36" height="36" viewBox="0 0 36 36" fill="none" xmlns="http://www.w3.org/2000/svg">
<path d="M34.7344 19.2656C34.0348 19.2656 33.4688 18.6996 33.4688 18C33.4688 15.9117 33.0609 13.8867 32.2523 11.9777C31.4745 10.14 30.3488 8.46988 28.9371 7.05938C27.5282 5.6458 25.8577 4.51981 24.0188 3.74414C22.1133 2.93906 20.0883 2.53125 18 2.53125C17.3004 2.53125 16.7344 1.96523 16.7344 1.26562C16.7344 0.566016 17.3004 0 18 0C20.4293 0 22.7883 0.474609 25.0066 1.4168C27.1512 2.32031 29.0742 3.62109 30.7266 5.27344C32.3789 6.92578 33.6762 8.85234 34.5832 10.9934C35.5219 13.2117 35.9965 15.5707 35.9965 18C36 18.6996 35.434 19.2656 34.7344 19.2656Z" fill="#59B664"/>
</svg>
