<svg width="48" height="48" viewBox="0 0 48 48" fill="none" xmlns="http://www.w3.org/2000/svg">
<path d="M41.9999 36.3L37.9999 32.3V10H15.6999L11.6999 6H37.9999C39.0999 6 40.0419 6.392 40.8259 7.176C41.6099 7.96 42.0012 8.90133 41.9999 10V36.3ZM38.1999 43.8L36.3999 42H9.9999C8.8999 42 7.9579 41.608 7.1739 40.824C6.3899 40.04 5.99857 39.0987 5.9999 38V11.6L4.1999 9.8C3.83324 9.43333 3.6499 8.96667 3.6499 8.4C3.6499 7.83333 3.83324 7.36667 4.1999 7C4.56657 6.63333 5.03324 6.45 5.5999 6.45C6.16657 6.45 6.63324 6.63333 6.9999 7L40.9999 41C41.3666 41.3667 41.5499 41.8333 41.5499 42.4C41.5499 42.9667 41.3666 43.4333 40.9999 43.8C40.6332 44.1667 40.1666 44.35 39.5999 44.35C39.0332 44.35 38.5666 44.1667 38.1999 43.8ZM22.4999 32L24.1499 29.8L9.9999 15.65V38H32.3499L28.3499 34H13.9999C13.5999 34 13.2999 33.8167 13.0999 33.45C12.8999 33.0833 12.9332 32.7333 13.1999 32.4L17.1999 27.05C17.3999 26.7833 17.6666 26.65 17.9999 26.65C18.3332 26.65 18.5999 26.7833 18.7999 27.05L22.4999 32Z" fill="#6B7280"/>
</svg>
