<svg width="16" height="16" viewBox="0 0 16 16" fill="none" xmlns="http://www.w3.org/2000/svg">
<path d="M15.4375 8.56249C15.1266 8.56249 14.875 8.31093 14.875 8C14.875 7.07187 14.6937 6.17187 14.3343 5.32342C13.9887 4.50667 13.4883 3.76439 12.8609 3.1375C12.2347 2.50924 11.4923 2.0088 10.675 1.66406C9.82812 1.30625 8.92812 1.125 7.99999 1.125C7.68906 1.125 7.4375 0.873435 7.4375 0.562498C7.4375 0.251563 7.68906 0 7.99999 0C9.07968 0 10.1281 0.210937 11.114 0.629689C12.0672 1.03125 12.9219 1.60937 13.6563 2.34375C14.3906 3.07812 14.9672 3.93437 15.3703 4.88596C15.7875 5.87187 15.9984 6.92031 15.9984 8C16 8.31093 15.7484 8.56249 15.4375 8.56249Z" fill="currentColor"/>
</svg>
