<svg width="16" height="16" viewBox="0 0 16 16" fill="none" xmlns="http://www.w3.org/2000/svg">
<path d="M10.0832 14.0667L4.46655 8.46668C4.39988 8.40002 4.35255 8.3278 4.32455 8.25002C4.29655 8.17224 4.28277 8.08891 4.28321 8.00002C4.28321 7.91113 4.29699 7.8278 4.32455 7.75002C4.3521 7.67224 4.39944 7.60002 4.46655 7.53335L10.0832 1.91668C10.2388 1.76113 10.4332 1.68335 10.6665 1.68335C10.8999 1.68335 11.0999 1.76668 11.2665 1.93335C11.4332 2.10002 11.5165 2.29446 11.5165 2.51668C11.5165 2.73891 11.4332 2.93335 11.2665 3.10002L6.36655 8.00002L11.2665 12.9C11.4221 13.0556 11.4999 13.2474 11.4999 13.4754C11.4999 13.7034 11.4165 13.9005 11.2499 14.0667C11.0832 14.2334 10.8888 14.3167 10.6665 14.3167C10.4443 14.3167 10.2499 14.2334 10.0832 14.0667Z" fill="#333333"/>
</svg>
