<svg width="20" height="23" viewBox="0 0 20 23" fill="none" xmlns="http://www.w3.org/2000/svg">
  <g filter="url(#filter0_dd_948_367)">
    <mask id="path-1-inside-1_948_367" fill="white">
      <path fill-rule="evenodd" clip-rule="evenodd"
        d="M6 1C3.79086 1 2 2.79086 2 5V13C2 15.2091 3.79086 17 6 17H8.26795L10 20L11.7321 17H14C16.2091 17 18 15.2091 18 13V5C18 2.79086 16.2091 1 14 1H6Z" />
    </mask>
    <path fill-rule="evenodd" clip-rule="evenodd"
      d="M6 1C3.79086 1 2 2.79086 2 5V13C2 15.2091 3.79086 17 6 17H8.26795L10 20L11.7321 17H14C16.2091 17 18 15.2091 18 13V5C18 2.79086 16.2091 1 14 1H6Z"
      fill="#59B664" />
    <path
      d="M8.26795 17L9.13397 16.5L8.8453 16H8.26795V17ZM10 20L9.13397 20.5L10 22L10.866 20.5L10 20ZM11.7321 17V16H11.1547L10.866 16.5L11.7321 17ZM3 5C3 3.34315 4.34315 2 6 2V0C3.23858 0 1 2.23858 1 5H3ZM3 13V5H1V13H3ZM6 16C4.34315 16 3 14.6569 3 13H1C1 15.7614 3.23858 18 6 18V16ZM8.26795 16H6V18H8.26795V16ZM7.40192 17.5L9.13397 20.5L10.866 19.5L9.13397 16.5L7.40192 17.5ZM10.866 20.5L12.5981 17.5L10.866 16.5L9.13397 19.5L10.866 20.5ZM14 16H11.7321V18H14V16ZM17 13C17 14.6569 15.6569 16 14 16V18C16.7614 18 19 15.7614 19 13H17ZM17 5V13H19V5H17ZM14 2C15.6569 2 17 3.34315 17 5H19C19 2.23858 16.7614 0 14 0V2ZM6 2H14V0H6V2Z"
      fill="white" mask="url(#path-1-inside-1_948_367)" />
  </g>
  <defs>
    <filter id="filter0_dd_948_367" x="0" y="0" width="20" height="23" filterUnits="userSpaceOnUse"
      color-interpolation-filters="sRGB">
      <feFlood flood-opacity="0" result="BackgroundImageFix" />
      <feColorMatrix in="SourceAlpha" type="matrix" values="0 0 0 0 0 0 0 0 0 0 0 0 0 0 0 0 0 0 127 0"
        result="hardAlpha" />
      <feOffset dy="1" />
      <feGaussianBlur stdDeviation="1" />
      <feComposite in2="hardAlpha" operator="out" />
      <feColorMatrix type="matrix" values="0 0 0 0 0 0 0 0 0 0 0 0 0 0 0 0 0 0 0.1 0" />
      <feBlend mode="normal" in2="BackgroundImageFix" result="effect1_dropShadow_948_367" />
      <feColorMatrix in="SourceAlpha" type="matrix" values="0 0 0 0 0 0 0 0 0 0 0 0 0 0 0 0 0 0 127 0"
        result="hardAlpha" />
      <feOffset dy="1" />
      <feGaussianBlur stdDeviation="0.5" />
      <feComposite in2="hardAlpha" operator="out" />
      <feColorMatrix type="matrix" values="0 0 0 0 0 0 0 0 0 0 0 0 0 0 0 0 0 0 0.06 0" />
      <feBlend mode="normal" in2="effect1_dropShadow_948_367" result="effect2_dropShadow_948_367" />
      <feBlend mode="normal" in="SourceGraphic" in2="effect2_dropShadow_948_367" result="shape" />
    </filter>
  </defs>
</svg>