<svg width="16" height="16" viewBox="0 0 16 16" fill="none" xmlns="http://www.w3.org/2000/svg">
<path d="M8.00001 5.67282C6.71419 5.67282 5.67273 6.71428 5.67273 8.0001C5.67273 9.28592 6.71419 10.3274 8.00001 10.3274C9.28582 10.3274 10.3273 9.28592 10.3273 8.0001C10.3273 6.71428 9.28582 5.67282 8.00001 5.67282ZM13.2015 7.41828C13.0697 6.23842 12.5406 5.13845 11.7011 4.29897C10.8617 3.4595 9.76168 2.93043 8.58182 2.79864V2.18192C8.58182 1.86192 8.32001 1.6001 8.00001 1.6001C7.68001 1.6001 7.41819 1.86192 7.41819 2.18192V2.79864C6.23833 2.93043 5.13836 3.4595 4.29888 4.29897C3.45941 5.13845 2.93034 6.23842 2.79855 7.41828H2.18182C1.86182 7.41828 1.60001 7.6801 1.60001 8.0001C1.60001 8.3201 1.86182 8.58192 2.18182 8.58192H2.79855C2.93034 9.76177 3.45941 10.8617 4.29888 11.7012C5.13836 12.5407 6.23833 13.0698 7.41819 13.2016V13.8183C7.41819 14.1383 7.68001 14.4001 8.00001 14.4001C8.32001 14.4001 8.58182 14.1383 8.58182 13.8183V13.2016C9.76168 13.0698 10.8617 12.5407 11.7011 11.7012C12.5406 10.8617 13.0697 9.76177 13.2015 8.58192H13.8182C14.1382 8.58192 14.4 8.3201 14.4 8.0001C14.4 7.6801 14.1382 7.41828 13.8182 7.41828H13.2015ZM8.00001 12.0728C5.74837 12.0728 3.92728 10.2517 3.92728 8.0001C3.92728 5.74846 5.74837 3.92737 8.00001 3.92737C10.2516 3.92737 12.0727 5.74846 12.0727 8.0001C12.0727 10.2517 10.2516 12.0728 8.00001 12.0728Z" fill="#0EA5E9"/>
</svg>
