<svg width="9" height="16" viewBox="0 0 9 16" fill="none" stroke="currentColor" xmlns="http://www.w3.org/2000/svg">
  <g clip-path="url(#clip0_676_565)">
    <path d="M6.57987 8.18607L6.75293 8.01054L6.57987 7.83501L0.469012 1.63739C0.3245 1.49082 0.25 1.30948 0.25 1.0751C0.25 0.845896 0.327907 0.65592 0.489797 0.491732C0.652829 0.326385 0.835659 0.25 1.05007 0.25C1.26373 0.25 1.44628 0.326238 1.60938 0.491603C1.60943 0.491646 1.60947 0.491689 1.60951 0.491732L8.59308 7.59555L8.59334 7.59582C8.65407 7.6574 8.69149 7.71805 8.71266 7.77741C8.73692 7.84711 8.75 7.92423 8.75 8.01054C8.75 8.09684 8.73692 8.17396 8.71267 8.24365C8.6915 8.30302 8.65408 8.36367 8.59334 8.42526L1.58872 15.5293C1.44312 15.677 1.26897 15.75 1.05007 15.75C0.835659 15.75 0.652828 15.6736 0.489797 15.5083C0.3267 15.3429 0.25 15.1558 0.25 14.935C0.25 14.715 0.326597 14.5281 0.489797 14.3626L6.57987 8.18607Z" fill="currentColor" stroke="currentColor" stroke-width="0.5"/>
  </g>
  <defs>
    <clipPath id="clip0_676_565">
      <rect width="9" height="16" fill="white"/>
    </clipPath>
  </defs>
</svg>
