<svg width="16" height="16" viewBox="0 0 16 16" fill="none" xmlns="http://www.w3.org/2000/svg">
  <g clip-path="url(#clip0_684_521)">
    <path fill-rule="evenodd" clip-rule="evenodd" d="M12.9478 2.35539C12.5874 2.0129 12.1057 1.82757 11.6087 1.84016C11.1117 1.85275 10.64 2.06223 10.2974 2.42253L9.86688 2.87607L13.038 5.89049L13.4679 5.43758C13.6376 5.25912 13.7704 5.04897 13.8589 4.81915C13.9474 4.58933 13.9897 4.34434 13.9834 4.09816C13.9772 3.85199 13.9225 3.60945 13.8226 3.3844C13.7226 3.15935 13.5792 2.95621 13.4007 2.78656L12.9478 2.35539ZM12.1763 6.79635L9.00517 3.78194L3.46962 9.60585C3.34849 9.73331 3.26564 9.89226 3.23054 10.0646L2.65813 12.8643C2.63679 12.9683 2.64227 13.0759 2.67404 13.1772C2.70582 13.2784 2.76284 13.3699 2.83975 13.443C2.91666 13.5161 3.01091 13.5684 3.11363 13.595C3.21635 13.6216 3.32415 13.6217 3.42688 13.5951L6.19472 12.8823C6.36479 12.8384 6.51911 12.7476 6.6401 12.6203L12.1763 6.79635Z" fill="black"/>
  </g>
  <defs>
    <clipPath id="clip0_684_521">
      <rect width="15" height="15" fill="white" transform="translate(0.5 0.5)"/>
    </clipPath>
  </defs>
</svg>
