<svg width="12" height="12" viewBox="0 0 12 12" fill="none" xmlns="http://www.w3.org/2000/svg">
<path d="M9.77348 8.97656C9.82592 9.02882 9.86753 9.09091 9.89592 9.15929C9.92431 9.22766 9.93892 9.30096 9.93892 9.375C9.93892 9.44903 9.92431 9.52234 9.89592 9.59071C9.86753 9.65908 9.82592 9.72118 9.77348 9.77344C9.66733 9.87821 9.52419 9.93695 9.37504 9.93695C9.22589 9.93695 9.08275 9.87821 8.9766 9.77344L6.00004 6.79687L3.02348 9.77344C2.91733 9.87821 2.77418 9.93695 2.62504 9.93695C2.47589 9.93695 2.33275 9.87821 2.2266 9.77344C2.17416 9.72118 2.13255 9.65908 2.10416 9.59071C2.07577 9.52234 2.06116 9.44903 2.06116 9.375C2.06116 9.30096 2.07577 9.22766 2.10416 9.15929C2.13255 9.09091 2.17416 9.02882 2.2266 8.97656L5.20316 6L2.2266 3.02344C2.12093 2.91776 2.06156 2.77444 2.06156 2.625C2.06156 2.551 2.07614 2.47773 2.10445 2.40937C2.13277 2.341 2.17428 2.27889 2.2266 2.22656C2.27892 2.17424 2.34104 2.13273 2.40941 2.10442C2.47777 2.0761 2.55104 2.06152 2.62504 2.06152C2.77448 2.06152 2.9178 2.12089 3.02348 2.22656L6.00004 5.20312L8.9766 2.22656C9.08227 2.12089 9.2256 2.06152 9.37504 2.06152C9.52448 2.06152 9.6678 2.12089 9.77348 2.22656C9.87915 2.33223 9.93852 2.47556 9.93852 2.625C9.93852 2.77444 9.87915 2.91776 9.77348 3.02344L6.79691 6L9.77348 8.97656Z" fill="white"/>
</svg>
