<svg width="16" height="16" viewBox="0 0 16 16" fill="none" xmlns="http://www.w3.org/2000/svg">
<path d="M8.00004 11.3333C8.18893 11.3333 8.34737 11.2693 8.47537 11.1413C8.60293 11.0138 8.66671 10.8555 8.66671 10.6666C8.66671 10.4778 8.60293 10.3193 8.47537 10.1913C8.34737 10.0638 8.18893 9.99998 8.00004 9.99998C7.81115 9.99998 7.65293 10.0638 7.52537 10.1913C7.39737 10.3193 7.33337 10.4778 7.33337 10.6666C7.33337 10.8555 7.39737 11.0138 7.52537 11.1413C7.65293 11.2693 7.81115 11.3333 8.00004 11.3333ZM8.00004 8.66665C8.18893 8.66665 8.34737 8.60265 8.47537 8.47465C8.60293 8.34709 8.66671 8.18887 8.66671 7.99998V5.33331C8.66671 5.14442 8.60293 4.98598 8.47537 4.85798C8.34737 4.73042 8.18893 4.66665 8.00004 4.66665C7.81115 4.66665 7.65293 4.73042 7.52537 4.85798C7.39737 4.98598 7.33337 5.14442 7.33337 5.33331V7.99998C7.33337 8.18887 7.39737 8.34709 7.52537 8.47465C7.65293 8.60265 7.81115 8.66665 8.00004 8.66665ZM8.00004 14.6666C7.07782 14.6666 6.21115 14.4915 5.40004 14.1413C4.58893 13.7915 3.88337 13.3166 3.28337 12.7166C2.68337 12.1166 2.20849 11.4111 1.85871 10.6C1.50849 9.78887 1.33337 8.9222 1.33337 7.99998C1.33337 7.07776 1.50849 6.21109 1.85871 5.39998C2.20849 4.58887 2.68337 3.88331 3.28337 3.28331C3.88337 2.68331 4.58893 2.2082 5.40004 1.85798C6.21115 1.5082 7.07782 1.33331 8.00004 1.33331C8.92226 1.33331 9.78893 1.5082 10.6 1.85798C11.4112 2.2082 12.1167 2.68331 12.7167 3.28331C13.3167 3.88331 13.7916 4.58887 14.1414 5.39998C14.4916 6.21109 14.6667 7.07776 14.6667 7.99998C14.6667 8.9222 14.4916 9.78887 14.1414 10.6C13.7916 11.4111 13.3167 12.1166 12.7167 12.7166C12.1167 13.3166 11.4112 13.7915 10.6 14.1413C9.78893 14.4915 8.92226 14.6666 8.00004 14.6666ZM8.00004 13.3333C9.48893 13.3333 10.75 12.8166 11.7834 11.7833C12.8167 10.75 13.3334 9.48887 13.3334 7.99998C13.3334 6.51109 12.8167 5.24998 11.7834 4.21665C10.75 3.18331 9.48893 2.66665 8.00004 2.66665C6.51115 2.66665 5.25004 3.18331 4.21671 4.21665C3.18337 5.24998 2.66671 6.51109 2.66671 7.99998C2.66671 9.48887 3.18337 10.75 4.21671 11.7833C5.25004 12.8166 6.51115 13.3333 8.00004 13.3333Z" fill="white"/>
</svg>
