<svg width="16" height="16" viewBox="0 0 16 16" fill="none" xmlns="http://www.w3.org/2000/svg">
<path d="M8.00004 11.3333C8.18893 11.3333 8.34737 11.2693 8.47537 11.1413C8.60293 11.0138 8.66671 10.8555 8.66671 10.6666V7.98331C8.66671 7.79442 8.60293 7.63887 8.47537 7.51665C8.34737 7.39442 8.18893 7.33331 8.00004 7.33331C7.81115 7.33331 7.65293 7.39709 7.52537 7.52465C7.39737 7.65265 7.33337 7.81109 7.33337 7.99998V10.6833C7.33337 10.8722 7.39737 11.0278 7.52537 11.15C7.65293 11.2722 7.81115 11.3333 8.00004 11.3333ZM8.00004 5.99998C8.18893 5.99998 8.34737 5.93598 8.47537 5.80798C8.60293 5.68042 8.66671 5.5222 8.66671 5.33331C8.66671 5.14442 8.60293 4.98598 8.47537 4.85798C8.34737 4.73042 8.18893 4.66665 8.00004 4.66665C7.81115 4.66665 7.65293 4.73042 7.52537 4.85798C7.39737 4.98598 7.33337 5.14442 7.33337 5.33331C7.33337 5.5222 7.39737 5.68042 7.52537 5.80798C7.65293 5.93598 7.81115 5.99998 8.00004 5.99998ZM8.00004 14.6666C7.07782 14.6666 6.21115 14.4915 5.40004 14.1413C4.58893 13.7915 3.88337 13.3166 3.28337 12.7166C2.68337 12.1166 2.20849 11.4111 1.85871 10.6C1.50849 9.78887 1.33337 8.9222 1.33337 7.99998C1.33337 7.07776 1.50849 6.21109 1.85871 5.39998C2.20849 4.58887 2.68337 3.88331 3.28337 3.28331C3.88337 2.68331 4.58893 2.2082 5.40004 1.85798C6.21115 1.5082 7.07782 1.33331 8.00004 1.33331C8.92226 1.33331 9.78893 1.5082 10.6 1.85798C11.4112 2.2082 12.1167 2.68331 12.7167 3.28331C13.3167 3.88331 13.7916 4.58887 14.1414 5.39998C14.4916 6.21109 14.6667 7.07776 14.6667 7.99998C14.6667 8.9222 14.4916 9.78887 14.1414 10.6C13.7916 11.4111 13.3167 12.1166 12.7167 12.7166C12.1167 13.3166 11.4112 13.7915 10.6 14.1413C9.78893 14.4915 8.92226 14.6666 8.00004 14.6666ZM8.00004 13.3333C9.47782 13.3333 10.7363 12.814 11.7754 11.7753C12.814 10.7362 13.3334 9.47776 13.3334 7.99998C13.3334 6.5222 12.814 5.26376 11.7754 4.22465C10.7363 3.18598 9.47782 2.66665 8.00004 2.66665C6.52226 2.66665 5.26404 3.18598 4.22537 4.22465C3.18626 5.26376 2.66671 6.5222 2.66671 7.99998C2.66671 9.47776 3.18626 10.7362 4.22537 11.7753C5.26404 12.814 6.52226 13.3333 8.00004 13.3333Z" fill="white"/>
</svg>
