<svg width="16" height="16" viewBox="0 0 16 16" fill="none" xmlns="http://www.w3.org/2000/svg">
<path d="M7.06671 9.19998L5.61671 7.74998C5.49448 7.62776 5.34182 7.56953 5.15871 7.57531C4.97515 7.58065 4.82226 7.64442 4.70004 7.76665C4.57782 7.88887 4.51671 8.04442 4.51671 8.23331C4.51671 8.4222 4.57782 8.57776 4.70004 8.69998L6.60004 10.6C6.72226 10.7222 6.87782 10.7833 7.06671 10.7833C7.2556 10.7833 7.41115 10.7222 7.53337 10.6L11.3167 6.81665C11.4389 6.69442 11.4974 6.54153 11.492 6.35798C11.4863 6.17487 11.4223 6.0222 11.3 5.89998C11.1778 5.77776 11.0223 5.71665 10.8334 5.71665C10.6445 5.71665 10.4889 5.77776 10.3667 5.89998L7.06671 9.19998ZM8.00004 14.6666C7.07782 14.6666 6.21115 14.4915 5.40004 14.1413C4.58893 13.7915 3.88337 13.3166 3.28337 12.7166C2.68337 12.1166 2.20849 11.4111 1.85871 10.6C1.50849 9.78887 1.33337 8.9222 1.33337 7.99998C1.33337 7.07776 1.50849 6.21109 1.85871 5.39998C2.20849 4.58887 2.68337 3.88331 3.28337 3.28331C3.88337 2.68331 4.58893 2.2082 5.40004 1.85798C6.21115 1.5082 7.07782 1.33331 8.00004 1.33331C8.92226 1.33331 9.78893 1.5082 10.6 1.85798C11.4112 2.2082 12.1167 2.68331 12.7167 3.28331C13.3167 3.88331 13.7916 4.58887 14.1414 5.39998C14.4916 6.21109 14.6667 7.07776 14.6667 7.99998C14.6667 8.9222 14.4916 9.78887 14.1414 10.6C13.7916 11.4111 13.3167 12.1166 12.7167 12.7166C12.1167 13.3166 11.4112 13.7915 10.6 14.1413C9.78893 14.4915 8.92226 14.6666 8.00004 14.6666ZM8.00004 13.3333C9.47782 13.3333 10.7363 12.814 11.7754 11.7753C12.814 10.7362 13.3334 9.47776 13.3334 7.99998C13.3334 6.5222 12.814 5.26376 11.7754 4.22465C10.7363 3.18598 9.47782 2.66665 8.00004 2.66665C6.52226 2.66665 5.26404 3.18598 4.22537 4.22465C3.18626 5.26376 2.66671 6.5222 2.66671 7.99998C2.66671 9.47776 3.18626 10.7362 4.22537 11.7753C5.26404 12.814 6.52226 13.3333 8.00004 13.3333Z" fill="white"/>
</svg>
